<?xml version="1.0" encoding="UTF-8"?>
<svg xmlns="http://www.w3.org/2000/svg" viewBox="0 0 1200 300" fill="none" role="img" aria-label="ResolveMeQ">
  <rect width="1200" height="300" fill="#0B1220"/>
  <g transform="translate(300 54) scale(3)">
<defs>
    <clipPath id="split">
      <rect width="64" height="27"/>
      <rect y="37" width="64" height="27"/>
    </clipPath>
  </defs>
  <g clip-path="url(#split)" fill="#60A5FA">
    <rect x="27" y="3" width="10" height="58" rx="2.5"/>
    <rect x="27" y="3" width="10" height="58" rx="2.5" transform="rotate(45 32 32)"/>
    <rect x="27" y="3" width="10" height="58" rx="2.5" transform="rotate(90 32 32)"/>
    <rect x="27" y="3" width="10" height="58" rx="2.5" transform="rotate(135 32 32)"/>
    <circle cx="32" cy="32" r="18"/>
  </g>
  <circle cx="32" cy="32" r="9.5" fill="#0B1220"/>
  <circle cx="32" cy="32" r="4.5" fill="#93C5FD"/>
  <rect x="6" y="28.5" width="52" height="2" rx="1" fill="#93C5FD"/>
  <rect x="6" y="33.5" width="52" height="2" rx="1" fill="#93C5FD"/>
  </g>
  <text x="540" y="168"
    fill="#F8FAFC"
    font-family="DejaVu Sans, Inter, ui-sans-serif, system-ui, -apple-system, Segoe UI, Roboto, Helvetica Neue, Arial, sans-serif"
    font-size="72"
    font-weight="700"
    letter-spacing="-0.035em">ResolveMeQ</text>
</svg>
